<?xml version="1.0" encoding="UTF-8"?>
<svg version="1.1" xmlns="http://www.w3.org/2000/svg" width="512" height="512" viewBox="0 0 512 512">
<path d="M0 0 C0.92320038 0.00215515 1.84640076 0.0043103 2.7975769 0.00653076 C16.84184242 0.05905652 30.57195364 0.49622308 44.375 3.3125 C45.36097168 3.51117676 46.34694336 3.70985352 47.36279297 3.91455078 C102.86994137 15.46232125 155.79473459 45.67163499 190.375 91.3125 C190.78492188 91.84069336 191.19484375 92.36888672 191.6171875 92.91308594 C216.49420916 125.02137204 233.07587608 163.16577908 239.375 203.3125 C239.55828857 204.47096436 239.74157715 205.62942871 239.93041992 206.82299805 C241.52150888 218.01288024 241.73363899 229.08476368 241.6875 240.375 C241.68534485 241.32437439 241.6831897 242.27374878 241.68096924 243.25189209 C241.6292473 257.4568888 241.24045393 271.3533884 238.375 285.3125 C238.07698486 286.78928223 238.07698486 286.78928223 237.77294922 288.29589844 C230.2151719 324.62984214 215.50774267 359.12833485 192.375 388.3125 C191.41013672 389.56546875 191.41013672 389.56546875 190.42578125 390.84375 C185.1029524 397.66733587 179.32565622 404.0388936 173.375 410.3125 C172.90046387 410.81571777 172.42592773 411.31893555 171.93701172 411.83740234 C164.87356152 419.27903794 157.38259367 425.80807505 149.17382812 431.95800781 C147.39807817 433.29512246 145.64379577 434.65690877 143.890625 436.0234375 C133.67782614 443.87413071 122.72335338 450.24748079 111.375 456.3125 C110.61268066 456.72242188 109.85036133 457.13234375 109.06494141 457.5546875 C75.8149814 475.13461756 38.11523749 482.78251529 0.75 482.625 C-0.17320038 482.62284485 -1.09640076 482.6206897 -2.0475769 482.61846924 C-16.09184242 482.56594348 -29.82195364 482.12877692 -43.625 479.3125 C-45.10395752 479.01448486 -45.10395752 479.01448486 -46.61279297 478.71044922 C-82.94479745 471.15189756 -117.44229363 456.44408637 -146.625 433.3125 C-147.4603125 432.66925781 -148.295625 432.02601563 -149.15625 431.36328125 C-155.97983587 426.0404524 -162.3513936 420.26315622 -168.625 414.3125 C-169.12821777 413.83796387 -169.63143555 413.36342773 -170.14990234 412.87451172 C-177.59153794 405.81106152 -184.12057505 398.32009367 -190.27050781 390.11132812 C-191.60762246 388.33557817 -192.96940877 386.58129577 -194.3359375 384.828125 C-202.18663071 374.61532614 -208.55998079 363.66085338 -214.625 352.3125 C-215.23988281 351.169021 -215.23988281 351.169021 -215.8671875 350.00244141 C-227.36919119 328.24802252 -234.82004006 303.56764101 -238.625 279.3125 C-238.80756348 278.15693604 -238.99012695 277.00137207 -239.17822266 275.81079102 C-240.77855387 264.54078263 -241.02416633 253.3717251 -241 242 C-240.99945618 241.03405914 -240.99891235 240.06811829 -240.99835205 239.07290649 C-240.93621469 214.99418132 -237.58294263 192.40215191 -230.625 169.3125 C-230.25665039 168.0757251 -230.25665039 168.0757251 -229.88085938 166.81396484 C-221.40137516 139.00953473 -207.08159227 112.73508742 -188.625 90.3125 C-188.1825293 89.76851563 -187.74005859 89.22453125 -187.28417969 88.6640625 C-176.09707556 74.97779558 -163.73613036 62.00394139 -149.625 51.3125 C-149.09680664 50.90257812 -148.56861328 50.49265625 -148.02441406 50.0703125 C-105.45888825 17.09117731 -53.69950689 -0.22637333 0 0 Z " fill="#474F6E" transform="translate(255.625,14.6875)"/>
<path d="M0 0 C1.79147461 -0.0309375 1.79147461 -0.0309375 3.61914062 -0.0625 C11.5893556 -0.0972097 18.57647483 0.89796972 26.1875 3.25 C26.92186279 3.47445801 27.65622559 3.69891602 28.4128418 3.93017578 C42.73244885 8.56572903 54.37745113 15.71629824 65.1875 26.25 C66.25061707 27.24031921 67.31445909 28.22986057 68.37890625 29.21875 C81.99077282 42.07770401 91.66850476 57.9338792 96.1875 76.25 C96.1875 77.57 96.1875 78.89 96.1875 80.25 C97.30125 80.311875 98.415 80.37375 99.5625 80.4375 C108.94851109 81.66464633 116.37591429 86.97206511 122.1875 94.25 C123.81289482 96.82837929 125.05904891 99.42293305 126.1875 102.25 C126.6 103.19875 127.0125 104.1475 127.4375 105.125 C129.75366952 114.77570631 127.73698726 123.9911408 122.8671875 132.578125 C117.42820351 140.36508569 109.46855238 146.05583816 100.1875 148.25 C95.4979231 148.55286851 90.87847914 148.49333609 86.1875 148.25 C85.94128906 149.25675781 85.69507813 150.26351562 85.44140625 151.30078125 C84.27358759 155.36822314 82.34352222 158.85522522 80.125 162.4375 C79.72651855 163.08823486 79.32803711 163.73896973 78.91748047 164.40942383 C58.2310727 197.67606346 28.76017967 219.14731978 -8.8984375 229.0625 C-11.5468275 229.63512487 -14.11573938 229.98828905 -16.8125 230.25 C-18.60494141 230.46076172 -18.60494141 230.46076172 -20.43359375 230.67578125 C-31.48734892 231.57114363 -38.5688597 227.84246136 -47.91162109 222.31835938 C-58.78577443 216.2067109 -74.25893421 213.64962115 -86.453125 216.96875 C-90.68419535 218.97124131 -93.66247707 221.79265776 -96.8125 225.25 C-98.2673392 226.69103617 -99.72605459 228.12816403 -101.1875 229.5625 C-104.50071474 232.87571474 -107.62636885 236.27403129 -110.67578125 239.828125 C-113.61270796 243.15699988 -116.65097531 246.38708133 -119.6875 249.625 C-124.38435691 254.63633462 -129.0347761 259.68064148 -133.61328125 264.80078125 C-136.11985584 267.59229504 -138.6506332 270.36105701 -141.1875 273.125 C-141.64705078 273.62580078 -142.10660156 274.12660156 -142.58007812 274.64257812 C-144.46732912 276.69828667 -146.35551701 278.75313033 -148.24462891 280.80712891 C-149.66363913 282.35007861 -151.08195724 283.89366114 -152.5 285.4375 C-152.95479736 285.93209717 -153.40959473 286.42669434 -153.87817383 286.9362793 C-157.39790592 290.77337995 -160.84384554 294.67078332 -164.25390625 298.60546875 C-166.28437721 300.7478955 -167.52982583 301.1961573 -170.4375 301.75 C-178.89505321 300.49702915 -186.37247788 289.87325265 -192.1875 284.0625 C-193.53908203 282.72928711 -193.53908203 282.72928711 -194.91796875 281.36914062 C-195.77777344 280.51126953 -196.63757813 279.65339844 -197.5234375 278.76953125 C-198.29993652 277.99714111 -199.07643555 277.22475098 -199.87646484 276.42895508 C-202.63288746 273.32667616 -203.86181889 271.46069922 -203.69140625 267.27734375 C-202.66229487 263.73262679 -201.42896517 262.31684994 -198.75 259.8125 C-197.92628906 259.03390625 -197.10257812 258.2553125 -196.25390625 257.453125 C-193.61002883 255.06729002 -190.94563993 252.71255171 -188.2421875 250.39453125 C-184.86705999 247.41551999 -181.59478567 244.33060112 -178.3125 241.25 C-170.46952817 233.89376106 -170.46952817 233.89376106 -166.8125 230.75 C-162.23060765 226.80837208 -157.85716585 222.64263874 -153.44799805 218.51049805 C-148.29675654 213.68782707 -143.06772272 208.9590106 -137.8125 204.25 C-135.68180267 202.33955453 -133.55778031 200.42199693 -131.4375 198.5 C-130.46039063 197.61828125 -129.48328125 196.7365625 -128.4765625 195.828125 C-122.04371655 189.60279021 -118.47003038 184.04466615 -118.29321289 175.01757812 C-118.29957764 174.12490234 -118.30594238 173.23222656 -118.3125 172.3125 C-118.32108032 170.91741211 -118.32108032 170.91741211 -118.32983398 169.49414062 C-118.63857833 157.42712262 -122.9270379 141.1354621 -131.8125 132.25 C-134.54050509 103.53257265 -124.26341206 75.84236346 -106.38305664 53.54541016 C-84.04647977 26.73239007 -52.05552775 4.17723471 -16.49145508 0.45288086 C-10.99963975 0.03697832 -5.50506579 0.0235385 0 0 Z " fill="#FE3445" transform="translate(303.8125,95.75)"/>
<path d="M0 0 C0.92320038 0.00215515 1.84640076 0.0043103 2.7975769 0.00653076 C16.84184242 0.05905652 30.57195364 0.49622308 44.375 3.3125 C45.36097168 3.51117676 46.34694336 3.70985352 47.36279297 3.91455078 C102.79827266 15.44741121 155.8922835 45.64788811 190.375 91.3125 C190.82746094 91.90981934 191.27992188 92.50713867 191.74609375 93.12255859 C193.23531428 95.09617082 194.71400594 97.07712215 196.1875 99.0625 C196.64423096 99.67681885 197.10096191 100.2911377 197.5715332 100.92407227 C200.4851173 104.9108274 202.99501379 108.98525235 205.375 113.3125 C194.76432465 129.76201067 182.64432186 145.13376179 168.875 159.0625 C168.13660889 159.81478882 168.13660889 159.81478882 167.38330078 160.58227539 C162.49789479 165.42467902 162.49789479 165.42467902 159.375 166.3125 C156.97265625 165.66796875 156.97265625 165.66796875 154.4375 164.5 C151.06938453 162.97471741 148.02958415 161.92050774 144.375 161.3125 C144.106875 160.343125 143.83875 159.37375 143.5625 158.375 C135.90703264 131.77015698 119.78639501 108.34069807 95.640625 94.03515625 C80.58979852 86.09566525 65.73258662 82.1337988 48.8125 82.125 C47.60013672 82.11275391 46.38777344 82.10050781 45.13867188 82.08789062 C9.6084604 82.03073747 -22.42261371 99.12011483 -47.3125 123.5625 C-70.90116054 147.39908033 -83.51587227 177.81684269 -84.625 211.3125 C-103.94102589 205.68009889 -122.46426925 195.18902632 -138.625 183.3125 C-139.19105957 182.8990332 -139.75711914 182.48556641 -140.34033203 182.05957031 C-146.98059233 177.17188791 -153.28668555 171.98681621 -159.35546875 166.3984375 C-161.4526005 164.47095324 -163.58876355 162.60488643 -165.75 160.75 C-173.55507962 153.91468979 -180.17803325 146.43090258 -186.625 138.3125 C-187.5478348 137.16899452 -188.47102475 136.02577558 -189.39453125 134.8828125 C-194.96072204 127.94744922 -200.05432634 120.95628872 -204.625 113.3125 C-190.27442829 89.87169476 -171.59088537 67.95517638 -149.625 51.3125 C-149.09680664 50.90257812 -148.56861328 50.49265625 -148.02441406 50.0703125 C-105.45888825 17.09117731 -53.69950689 -0.22637333 0 0 Z " fill="#545C79" transform="translate(255.625,14.6875)"/>
<path d="M0 0 C5.55153557 4.62432301 10.68532596 9.5485616 15.78100586 14.66748047 C17.0553801 15.94163567 17.0553801 15.94163567 18.35549927 17.24153137 C20.66467735 19.55128322 22.97163402 21.86322545 25.27758861 24.17619467 C27.69542349 26.60031731 30.1161257 29.02157336 32.53651428 31.44314575 C37.11049497 36.02022386 41.68192244 40.59984313 46.25241905 45.18040001 C51.45968184 50.39887351 56.66981362 55.61447862 61.88017833 60.82985473 C72.58996199 71.55006675 83.29616999 82.27384317 94 93 C93.01 93.495 93.01 93.495 92 94 C90.30761719 93.41088867 90.30761719 93.41088867 88.296875 92.41796875 C87.56339844 92.06283203 86.82992187 91.70769531 86.07421875 91.34179688 C84.92373047 90.77041992 84.92373047 90.77041992 83.75 90.1875 C71.44720545 84.14161554 57.09884354 79.979013 43.359375 83.71875 C39.12830465 85.72124131 36.15002293 88.54265776 33 92 C31.5451608 93.44103617 30.08644541 94.87816403 28.625 96.3125 C25.31178526 99.62571474 22.18613115 103.02403129 19.13671875 106.578125 C16.19979204 109.90699988 13.16152469 113.13708133 10.125 116.375 C5.42814309 121.38633462 0.7777239 126.43064148 -3.80078125 131.55078125 C-6.30735584 134.34229504 -8.8381332 137.11105701 -11.375 139.875 C-11.83455078 140.37580078 -12.29410156 140.87660156 -12.76757812 141.39257812 C-14.65482912 143.44828667 -16.54301701 145.50313033 -18.43212891 147.55712891 C-19.85113913 149.10007861 -21.26945724 150.64366114 -22.6875 152.1875 C-23.36969604 152.92939575 -23.36969604 152.92939575 -24.06567383 153.6862793 C-27.58540592 157.52337995 -31.03134554 161.42078332 -34.44140625 165.35546875 C-36.47187721 167.4978955 -37.71732583 167.9461573 -40.625 168.5 C-49.08255321 167.24702915 -56.55997788 156.62325265 -62.375 150.8125 C-63.27605469 149.92369141 -64.17710938 149.03488281 -65.10546875 148.11914062 C-65.96527344 147.26126953 -66.82507813 146.40339844 -67.7109375 145.51953125 C-68.48743652 144.74714111 -69.26393555 143.97475098 -70.06396484 143.17895508 C-72.82038746 140.07667616 -74.04931889 138.21069922 -73.87890625 134.02734375 C-72.84979487 130.48262679 -71.61646517 129.06684994 -68.9375 126.5625 C-67.70193359 125.39460938 -67.70193359 125.39460938 -66.44140625 124.203125 C-63.79752883 121.81729002 -61.13313993 119.46255171 -58.4296875 117.14453125 C-55.05455999 114.16551999 -51.78228567 111.08060112 -48.5 108 C-40.65702817 100.64376106 -40.65702817 100.64376106 -37 97.5 C-32.41810765 93.55837208 -28.04466585 89.39263874 -23.63549805 85.26049805 C-18.48425654 80.43782707 -13.25522272 75.7090106 -8 71 C-5.86930267 69.08955453 -3.74528031 67.17199693 -1.625 65.25 C-0.64789063 64.36828125 0.32921875 63.4865625 1.3359375 62.578125 C7.76875892 56.35281395 11.34310943 50.79435912 11.51904297 41.76708984 C11.5096167 40.42831787 11.5096167 40.42831787 11.5 39.0625 C11.49500488 38.1338916 11.49000977 37.2052832 11.48486328 36.24853516 C11.18549734 24.28009135 7.22898281 14.3405277 1.13671875 4.07421875 C0 2 0 2 0 0 Z " fill="#FCD010" transform="translate(174,229)"/>
<path d="M0 0 C2.15470272 -0.00072681 4.30939961 -0.00289063 6.46410084 -0.00549722 C14.0797435 -0.0146724 21.69536903 -0.01884298 29.31101704 -0.01804566 C35.48487181 -0.01751574 41.65866285 -0.02451864 47.83250141 -0.03855348 C171.84000464 -0.31419854 171.84000464 -0.31419854 197.87547016 7.16725707 C198.20547016 7.82725707 198.53547016 8.48725707 198.87547016 9.16725707 C178.1630128 18.20542028 148.98873365 15.51127557 126.75047016 16.27663207 C125.56492542 16.31850394 124.37938068 16.36037581 123.15791035 16.40351653 C97.77908548 17.28368909 72.41314282 17.47686852 47.02097797 17.42799926 C41.06670059 17.41660624 35.11260225 17.42340846 29.15833092 17.43488097 C3.6182881 17.47644949 -21.88489644 17.16111011 -47.40968609 16.24538207 C-49.14411213 16.18393382 -49.14411213 16.18393382 -50.91357708 16.12124419 C-113.43688763 13.85489928 -113.43688763 13.85489928 -119.12452984 8.16725707 C-105.43142267 2.58858378 -89.82893026 2.95297448 -75.24952984 2.10475707 C-74.21980053 2.04431716 -74.21980053 2.04431716 -73.16926861 1.98265624 C-48.79020606 0.57495754 -24.41760812 0.00466754 0 0 Z " fill="#3D4562" transform="translate(216.124529838562,413.8327429294586)"/>
<path d="M0 0 C7.37964271 4.54619823 12.60357364 10.62203117 15.7265625 18.6796875 C16.1390625 19.6284375 16.5515625 20.5771875 16.9765625 21.5546875 C19.29273202 31.20539381 17.27604976 40.4208283 12.40625 49.0078125 C6.91311611 56.87229928 -0.96946874 62.32408579 -10.2734375 64.6796875 C-20.52280704 66.05916239 -29.05573362 63.84203744 -37.625 58.10546875 C-42.61151874 54.09944527 -45.63722543 49.46300544 -48.2734375 43.6796875 C-48.82451172 42.53113281 -48.82451172 42.53113281 -49.38671875 41.359375 C-51.83053863 33.97408672 -51.21045788 23.86833162 -48.3125 16.6640625 C-43.67338222 7.80439396 -36.68592931 0.79444519 -27.203125 -2.62109375 C-17.85399207 -4.85242014 -8.67154479 -4.13709819 0 0 Z " fill="#FDFDFD" transform="translate(414.2734375,179.3203125)"/>
<path d="M0 0 C1.28583984 -0.02513672 1.28583984 -0.02513672 2.59765625 -0.05078125 C4.9375 0.3125 4.9375 0.3125 6.71875 1.640625 C8.83172925 4.53919909 8.3263282 6.81304617 7.9375 10.3125 C3.6952808 26.65918466 -10.60328928 39.75020969 -24.203125 48.71875 C-28.59247919 51.16527529 -32.7072553 52.5985982 -37.75 52.625 C-38.49636719 52.64175781 -39.24273437 52.65851563 -40.01171875 52.67578125 C-42.62852207 52.21223323 -43.48577231 51.42453647 -45.0625 49.3125 C-46.32853431 41.57562364 -43.06426056 35.80716058 -39.0625 29.3125 C-36.25963866 25.45348801 -33.24525808 21.86206531 -30.0625 18.3125 C-29.52109375 17.67699219 -28.9796875 17.04148438 -28.421875 16.38671875 C-21.87263985 9.19248317 -9.92982395 0.04493133 0 0 Z " fill="#FF5C69" transform="translate(254.0625,122.6875)"/>
<path d="M0 0 C2.90543872 1.31376917 4.96661059 2.72056492 7.20800781 4.98095703 C7.80832825 5.58142853 8.40864868 6.18190002 9.02716064 6.80056763 C9.66272888 7.44645844 10.29829712 8.09234924 10.953125 8.7578125 C11.61334656 9.42086395 12.27356812 10.08391541 12.95379639 10.76705933 C15.05727824 12.88171832 17.15369142 15.00323212 19.25 17.125 C20.67662261 18.56165557 22.10370072 19.99785898 23.53125 21.43359375 C27.02613661 24.95050804 30.51470062 28.47358547 34 32 C33.01 32.495 33.01 32.495 32 33 C30.30761719 32.41088867 30.30761719 32.41088867 28.296875 31.41796875 C27.56339844 31.06283203 26.82992187 30.70769531 26.07421875 30.34179688 C25.30722656 29.96087891 24.54023438 29.57996094 23.75 29.1875 C13.79951623 24.29759674 5.22434324 21.82325129 -6 21.8125 C-6.67289063 21.80025391 -7.34578125 21.78800781 -8.0390625 21.77539062 C-12.769425 21.76169266 -16.55945702 22.53716488 -21 24 C-17.39986935 18.87254119 -13.52767903 14.39393108 -9.03515625 10.03125 C-5.84309843 6.84531897 -2.92160442 3.43288519 0 0 Z " fill="#FB9D02" transform="translate(234,290)"/>
<path d="M0 0 C4.75085867 3.96372525 9.23613112 8.09794782 13.58984375 12.4921875 C14.17923233 13.08299103 14.76862091 13.67379456 15.37586975 14.28250122 C17.23213727 16.14430404 19.08487085 18.00957745 20.9375 19.875 C22.20614672 21.14867011 23.4750249 22.42210971 24.74414062 23.6953125 C27.83210554 26.79422043 30.91690929 29.89624301 34 33 C32.82981323 34.16909912 32.82981323 34.16909912 31.63598633 35.36181641 C30.02649713 36.97264722 28.42142338 38.58792525 26.82421875 40.2109375 C13.80269058 53.39910314 13.80269058 53.39910314 9 55 C9.32097656 54.21496094 9.64195312 53.42992187 9.97265625 52.62109375 C14.4536396 36.82690528 10.3123113 20.68745044 2.6875 6.6875 C1.91986328 5.39392578 1.91986328 5.39392578 1.13671875 4.07421875 C0 2 0 2 0 0 Z " fill="#FC9D02" transform="translate(174,229)"/>
<path d="M0 0 C3.31469389 1.22499557 4.84046741 2.16720362 6.875 5.0625 C7.51156938 8.80234509 7.13084708 10.57212644 5.375 13.9375 C2.33331021 16.52293632 0.67492767 16.75260681 -3.21875 16.4765625 C-5.125 16.0625 -5.125 16.0625 -7.625 14.5 C-9.75280647 11.04231448 -9.82455049 9.04993781 -9.125 5.0625 C-6.17069028 1.68614603 -4.55909952 0.09118199 0 0 Z " fill="#FEA000" transform="translate(131.125,358.9375)"/>
<path d="M0 0 C3.125 0.375 3.125 0.375 6 1 C7.32841008 6.43440487 7.32841008 6.43440487 5.875 8.9375 C4 10 4 10 1.4375 9.8125 C-1 9 -1 9 -3 7 C-2.67028521 3.70285207 -2.3773161 2.3773161 0 0 Z " fill="#D1F6FF" transform="translate(412,215)"/>
</svg>

